<svg width="25" height="25" viewBox="0 0 25 25" fill="none" xmlns="http://www.w3.org/2000/svg">
<mask id="path-1-inside-1_457_47" fill="white">
<path d="M0 1C0 0.447715 0.447715 0 1 0H24C24.5523 0 25 0.447715 25 1V8H0V1Z"/>
</mask>
<path d="M0 1C0 0.447715 0.447715 0 1 0H24C24.5523 0 25 0.447715 25 1V8H0V1Z" stroke="black" stroke-width="3" stroke-linejoin="round" mask="url(#path-1-inside-1_457_47)"/>
<mask id="path-2-inside-2_457_47" fill="white">
<path d="M0 6H25V24C25 24.5523 24.5523 25 24 25H1C0.447716 25 0 24.5523 0 24V6Z"/>
</mask>
<path d="M0 6H25V24C25 24.5523 24.5523 25 24 25H1C0.447716 25 0 24.5523 0 24V6Z" stroke="black" stroke-width="3" mask="url(#path-2-inside-2_457_47)"/>
<path d="M12.5 10.5V20.5M7.5 15.5H17.5" stroke="black" stroke-width="1.5" stroke-linecap="round" stroke-linejoin="round"/>
</svg>
